<?xml version="1.0" encoding="utf-8"?>
<!-- Generator: Adobe Illustrator 16.0.0, SVG Export Plug-In . SVG Version: 6.00 Build 0)  -->
<!DOCTYPE svg PUBLIC "-//W3C//DTD SVG 1.1//EN" "http://www.w3.org/Graphics/SVG/1.1/DTD/svg11.dtd">
<svg version="1.1" id="Layer_1" xmlns="http://www.w3.org/2000/svg" xmlns:xlink="http://www.w3.org/1999/xlink" x="0px" y="0px"
	 width="267.5px" height="65px" viewBox="0 0 267.5 65" enable-background="new 0 0 267.5 65" xml:space="preserve">
<g>
	<g>
		<defs>
			<path id="SVGID_1_" d="M121.051,5.384c-0.906,2.341,0.256,4.237,2.598,4.237c2.339,0,4.971-1.896,5.875-4.237
				c0.909-2.338-0.256-4.235-2.595-4.235C124.586,1.148,121.957,3.046,121.051,5.384"/>
		</defs>
		<clipPath id="SVGID_2_">
			<use xlink:href="#SVGID_1_"  overflow="visible"/>
		</clipPath>
		
			<linearGradient id="SVGID_3_" gradientUnits="userSpaceOnUse" x1="-154.3545" y1="450.8809" x2="-153.811" y2="450.8809" gradientTransform="matrix(168.8577 0 0 -168.8577 26161.4063 76140.1953)">
			<stop  offset="0" style="stop-color:#E50013"/>
			<stop  offset="1" style="stop-color:#E3007F"/>
		</linearGradient>
		<rect x="120.145" y="1.148" clip-path="url(#SVGID_2_)" fill="url(#SVGID_3_)" width="10.287" height="8.473"/>
	</g>
	<path fill="#717171" d="M10.915,31.568c-0.756,1.511-2.953,5.897-3.448,6.857c-0.5,0.956,0.025,1.976,1.632,1.976h10.083
		c1.418,0,2.056,0.71,1.216,2.166c-0.905,1.563-1.634,2.555-2.329,3.389c-0.694,0.835-3.689,0.662-3.03-0.604
		c0.652-1.264,0.155-0.257,0.76-1.4c0.606-1.138-0.57-1.513-1.68-1.513c-1.115,0-5.362-0.032-6.875-0.032
		c-1.512,0-2.197,0.989-2.767,2.162c-0.572,1.176-0.938,1.892-1.469,2.846c-0.529,0.953,0.058,1.667,1.912,1.667h20.381
		c2.346,0,3.411-0.867,4.003-2.133c0.595-1.264,2.205-4.636,2.961-6.142c0.757-1.518,0.309-2.011-1.05-2.011
		s-9.249-0.03-10.764-0.03c-1.512,0-1.557-0.836-1.045-1.944c0.521-1.115,1.282-2.933,2.675-3.921
		c1.391-0.985,3.186-0.198,2.556,0.927c-0.334,0.597-0.508,1.027-0.868,1.692c-0.429,0.791,0.244,1.33,1.878,1.302
		c1.635-0.036,5.32-0.064,6.726-0.064c1.406,0,2.12-0.651,2.617-1.607c0.498-0.957,1.061-2.244,1.742-3.592
		c0.679-1.349-0.224-1.748-2.045-1.718c-1.818,0.029-18.402,0-20.809,0C11.467,29.839,10.915,31.568,10.915,31.568"/>
	<path fill="#717171" d="M30.988,50.905l8.65-18.255c0,0,0.926-2.877,4.504-2.778c3.583,0.098,20.237-0.004,20.237-0.004
		s3.23-0.493,1.813,2.482c-1.413,2.976-5.249,10.918-6.683,13.693c-1.433,2.775-2.635,3.131-4.877,3.131H46.62
		c-1.896,0-3.49,0.14-4.5,2.1c-1.013,1.959-5.073,10.36-5.073,10.36s-0.61,0.977-1.398,0c-0.789-0.979-3.424-5.672-4.342-7.282
		C30.388,52.741,30.988,50.905,30.988,50.905 M45.22,44.774c0,0-0.615,1.457,1.147,1.423c1.757-0.034,2.048-0.915,2.794-2.033
		c0.744-1.116,3.854-7.547,4.466-9.004c0.609-1.456,0.007-2.099-0.804-2.132c-0.818-0.037-1.978,0.238-2.807,1.929
		C49.189,36.648,45.598,43.759,45.22,44.774"/>
	<path fill="#717171" d="M95.402,29.838h-7.114h-7.952h-6.955c-1.316,0-2.09-0.064-2.961,1.802
		c-0.869,1.864-7.119,14.477-7.586,15.356c-0.467,0.877-0.796,2.082,0.96,2.082h21.197c1.478,0,3.165-0.165,4.124-2.304
		c0.95-2.136,6.155-13,6.951-14.479C96.868,30.818,96.776,29.838,95.402,29.838 M82.991,35.16c-0.609,1.457-3.722,7.887-4.463,9.004
		c-0.747,1.118-1.038,1.999-2.797,2.033c-1.758,0.034-1.147-1.423-1.147-1.423c0.381-1.017,3.969-8.126,4.8-9.817
		c0.829-1.69,1.985-1.966,2.802-1.929C83.001,33.062,83.604,33.704,82.991,35.16"/>
	<g>
		<defs>
			<path id="SVGID_4_" d="M134.114,29.838c-1.481,0-3.166,0.165-4.121,2.303s-6.158,12.999-6.957,14.476
				c-0.793,1.481-0.706,2.463,0.665,2.463h7.116c0.934,0,2.71-0.378,3.457-2.353c0.754-1.971,4.506-9.97,5.397-11.614
				c0.894-1.646,2.085-2.409,2.63-2.409c0.549,0,2.521-0.059,1.329,2.52c-1.191,2.577-4.987,10.076-5.49,11.177
				c-0.502,1.101-0.908,2.68,0.633,2.68h6.95c1.315,0,2.087,0.061,2.964-1.804c0.867-1.861,7.115-14.475,7.585-15.354
				c0.471-0.876,0.797-2.083-0.96-2.083H134.114z"/>
		</defs>
		<clipPath id="SVGID_5_">
			<use xlink:href="#SVGID_4_"  overflow="visible"/>
		</clipPath>
		
			<linearGradient id="SVGID_6_" gradientUnits="userSpaceOnUse" x1="-154.3545" y1="451.0508" x2="-153.8136" y2="451.0508" gradientTransform="matrix(168.8188 0 0 -168.8188 26155.5469 76185.3047)">
			<stop  offset="0" style="stop-color:#E50013"/>
			<stop  offset="1" style="stop-color:#E3007F"/>
		</linearGradient>
		<rect x="122.243" y="29.838" clip-path="url(#SVGID_5_)" fill="url(#SVGID_6_)" width="34.824" height="19.302"/>
	</g>
	<g>
		<defs>
			<path id="SVGID_7_" d="M177.769,29.838c-1.851,0-2.199,0.668-3.184,2.655c-0.983,1.987-5.733,11.369-6.614,12.946
				c-0.887,1.575-3.78,0.617-2.752-1.577c1.035-2.188,5.41-11.164,5.807-12.057c0.401-0.887,1.126-1.967-0.862-1.967h-7.145
				c-1.368,0-2.099,0.188-2.918,1.764c-0.816,1.575-6.967,13.702-7.524,15.076c-0.56,1.371-0.945,2.402,1.247,2.402h8.854
				c1.645,0,2.609,0.061,3.219,0.746c0.296,0.33,0.061,1.11-0.259,1.821l-0.478,1.35c0,0-0.533,0.938,0.015,1.992
				c0.722,1.396,4.086,7.296,4.67,8.48c0.459,0.918,1.279-0.109,1.279-0.109s13.921-29.771,14.819-31.208
				c0.896-1.443,0.954-2.314-0.827-2.314H177.769z"/>
		</defs>
		<clipPath id="SVGID_8_">
			<use xlink:href="#SVGID_7_"  overflow="visible"/>
		</clipPath>
		
			<linearGradient id="SVGID_9_" gradientUnits="userSpaceOnUse" x1="-154.3521" y1="451.0898" x2="-153.811" y2="451.0898" gradientTransform="matrix(168.8316 0 0 -168.8316 26157.0605 76205.4219)">
			<stop  offset="0" style="stop-color:#E50013"/>
			<stop  offset="1" style="stop-color:#E3007F"/>
		</linearGradient>
		<rect x="151.631" y="29.838" clip-path="url(#SVGID_8_)" fill="url(#SVGID_9_)" width="35.266" height="34.549"/>
	</g>
	<g>
		<defs>
			<path id="SVGID_10_" d="M117.341,18.474c1.219-2.487,2.921-2.884,4.12-2.837c1.197,0.052,2.081,0.994,1.182,3.137
				c-0.249,0.593-0.729,1.688-1.312,2.996c-2.53,1.038-5.085,2.37-7.479,4.076C115.208,22.931,116.704,19.781,117.341,18.474
				 M119.123,12.603c-3.915-0.007-9.798,1.52-12.77,6.977c-0.179,0.379-0.37,0.768-0.562,1.165v0.002
				c-2.421,5.01-5.497,11.392-8.015,16.588c3.354-3.25,8.965-6.021,8.965-6.021c-1.708,1.036-3.526,2.661-5.188,4.362
				c-1.19,1.265-2.628,2.855-4.006,4.532c-0.965,1.193-1.654,2.108-1.911,2.456c-0.029,0.042-0.06,0.083-0.089,0.123
				c-0.016,0.023-0.028,0.037-0.028,0.037c-0.644,0.89-1.229,1.775-1.711,2.613c-0.353,0.701-0.592,1.165-0.679,1.306
				c-0.893,1.436-0.95,2.308,0.831,2.308c1.777,0,4.439,0.03,6.883,0.03c2.446,0,2.996-0.834,4.205-3.508
				c0.16-0.353,0.388-0.864,0.665-1.478c0.015-0.03,2.692-5.236,8.741-12.559c1.366-1.651,2.851-3.1,4.396-4.381
				c-0.878,1.851-8.699,18.245-9.104,19.323c-0.456,1.212-0.799,2.603,1.142,2.603c2.622,0,4.206-0.03,5.579-0.03
				c1.366,0,2.098-0.189,2.914-1.762c0.603-1.165,8.321-17.187,12.543-26.045c-3.014,0.294-6.636,1.655-6.636,1.655
				c3.127-1.843,7.718-3.319,7.718-3.319v0.006c3.561-1.147,6.032-1.496,6.032-1.496s-2.341-0.003-5.852,0.505
				c0.809-1.704,1.341-2.841,1.44-3.086c0.56-1.372,0.896-2.911-1.292-2.911c-1.234,0-8.142-0.002-14.26-0.002L119.123,12.603z"/>
		</defs>
		<clipPath id="SVGID_11_">
			<use xlink:href="#SVGID_10_"  overflow="visible"/>
		</clipPath>
		
			<linearGradient id="SVGID_12_" gradientUnits="userSpaceOnUse" x1="-154.356" y1="451.0059" x2="-153.8151" y2="451.0059" gradientTransform="matrix(168.8206 0 0 -168.8206 26156.1055 76170.0469)">
			<stop  offset="0" style="stop-color:#E50013"/>
			<stop  offset="1" style="stop-color:#E3007F"/>
		</linearGradient>
		<rect x="92.177" y="12.595" clip-path="url(#SVGID_11_)" fill="url(#SVGID_12_)" width="46.858" height="36.486"/>
	</g>
	<path fill="#E4004F" d="M198.952,43.061c1.599-2.26,3.5-4.271,5.705-6.035c0.496-0.441,1.005-0.798,1.529-1.076
		c0.523-0.274,1.116-0.439,1.778-0.495c0.605-0.054,1.252-0.013,1.943,0.124c0.688,0.139,1.253,0.427,1.694,0.868l0.082,0.082
		c0.189,0.186,0,0.497,0,0.497c-0.938,1.765-1.819,3.527-2.646,5.291c-0.827,1.765-1.57,3.556-2.232,5.374l-0.744,2.15l0.578-1.158
		c0.607-1.211,1.213-2.397,1.82-3.556c0.605-1.156,1.294-2.286,2.066-3.389c1.378-2.039,3.03-3.94,4.961-5.705
		c0.441-0.44,0.923-0.882,1.447-1.323c0.523-0.44,1.088-0.716,1.694-0.826s1.226-0.068,1.861,0.124
		c0.633,0.193,1.226,0.454,1.776,0.785c0.237,0.122,0.271,0.429,0.166,0.578c-1.269,1.766-2.219,3.694-2.853,5.788
		c-0.635,2.095-1.089,4.245-1.364,6.449c-0.11,1.213-0.179,2.427-0.207,3.638c-0.028,1.213,0.014,2.427,0.124,3.638
		c0.11-0.496,0.249-0.978,0.414-1.446c0.165-0.468,0.385-0.95,0.661-1.447c0.551-0.992,1.103-1.984,1.654-2.977
		c0.55-0.992,1.156-1.956,1.818-2.894c0.605-0.827,1.253-1.598,1.944-2.314c0.688-0.718,1.417-1.377,2.189-1.984
		c0.486-0.383,1.009-0.63,1.562-0.771c-1.833-7.489-8.585-13.046-16.638-13.046c-9.462,0-17.132,7.67-17.132,17.132
		c0,1.465,0.186,2.887,0.53,4.243c0.583-1.057,1.165-2.104,1.748-3.137C197.491,45.169,198.18,44.108,198.952,43.061"/>
	<path fill="#E4004F" d="M261.663,47.662l-0.128-0.015c-0.187,0-0.529,0.067-0.771,0.513c-4.859,6.876-6.764,7.903-7.466,7.903
		c-0.215,0-0.438,0-0.438-0.616c0-0.331,0.224-1.279,1.718-3.924c1.033-1.829,4.429-7.543,10.103-17h-4.224
		c-1.555,2.682-3.304,5.642-5.231,8.848c-1.098,1.824-1.993,3.325-2.694,4.521c-0.069,0.069-0.137,0.157-0.197,0.269
		c-4.86,6.876-6.763,7.903-7.465,7.903c-0.216,0-0.438,0-0.438-0.616c0-0.331,0.223-1.279,1.716-3.924
		c1.04-1.842,4.436-7.555,10.104-17h-4.226c-1.555,2.684-3.304,5.643-5.232,8.848c-1.053,1.751-1.926,3.217-2.622,4.4
		c-0.184,0.124-0.292,0.303-0.331,0.367c-1.535,2.264-3.066,4.194-4.549,5.735c-1.9,1.976-2.665,2.189-2.906,2.189
		c-0.216,0-0.462,0-0.462-0.668c0-0.415,0.297-1.609,2.286-4.938l5.274-8.74h-4.411l-0.707,1.235
		c-0.314-0.678-0.981-1.051-1.931-1.051c-1.356,0-3.09,0.517-5.193,1.764c-2.515,1.488-5.803,4.73-8.601,7.994
		c-0.701,0.817-1.364,1.709-2.025,2.646c-0.607,0.827-1.158,1.627-1.654,2.397l-0.496,0.662c0,0-0.072,0.303-1.985-0.33
		c-0.495-0.166-0.979-0.413-1.445-0.745c-0.469-0.33-0.842-0.743-1.116-1.239c-0.277-0.441-0.442-0.937-0.497-1.489
		c-0.055-0.549-0.083-1.073-0.083-1.57c0-2.479,0.523-4.933,1.571-7.358c0.441-0.992,0.896-1.929,1.365-2.812
		c0.468-0.881,1.004-1.791,1.612-2.729c-1.766,1.6-3.419,3.254-4.961,4.961c-0.883,0.938-1.724,1.902-2.522,2.895
		c-0.8,0.992-1.585,2.04-2.355,3.142c-0.443,0.552-0.827,1.116-1.159,1.694c-0.33,0.579-0.661,1.172-0.992,1.777l-0.743,1.406
		c-0.255,0.363-1.395-0.23-1.653-0.414c-0.325-0.228-0.648-0.454-0.951-0.701c-0.304-0.248-0.481-0.575-0.651-0.939
		c-0.197-0.428-0.258-0.907-0.176-1.377c0.083-0.468,0.179-0.922,0.29-1.364c0.55-2.26,1.377-4.325,2.48-6.201
		c0.55-0.937,1.185-1.901,1.901-2.894c-0.772,0.717-1.53,1.462-2.273,2.232c-0.744,0.772-1.447,1.545-2.108,2.315
		c-0.938,1.047-1.82,2.108-2.646,3.183c-0.828,1.075-1.654,2.165-2.48,3.268c-0.099,0.097-0.263,0.33-0.488,0.684
		c2.804,5.636,8.619,9.511,15.342,9.511c5.319,0,10.071-2.426,13.214-6.229c0.028,0.037,0.055,0.078,0.083,0.116
		c0.724,0.911,1.636,1.374,2.712,1.374c0.994,0,2.008-0.472,3.015-1.404c0.588-0.544,1.318-1.377,2.21-2.52
		c-0.005,0.092-0.008,0.182-0.008,0.272c0,1.018,0.294,1.882,0.873,2.571c0.602,0.716,1.39,1.08,2.345,1.08
		c1.348,0,3.048-1.26,5.198-3.848c0.092-0.109,0.172-0.205,0.26-0.31c-0.022,0.22-0.039,0.439-0.039,0.66
		c0,0.985,0.28,1.815,0.835,2.471c0.577,0.681,1.326,1.026,2.227,1.026c1.36,0,3.108-1.312,5.402-4.069
		c-0.017,0.19-0.034,0.381-0.034,0.572c0,0.985,0.281,1.815,0.836,2.47c0.577,0.682,1.326,1.027,2.226,1.027
		c1.769,0,4.189-2.206,7.616-6.941l1.083-1.484c0.174-0.179,0.385-0.443,0.385-0.764C262.177,48.006,261.976,47.738,261.663,47.662
		 M233.636,50.396c-3.659,4.93-5.147,5.667-5.708,5.667c-0.57,0-0.949-0.192-0.949-1.131c0-1.762,1.249-4.162,3.717-7.133
		c3.042-3.662,4.828-4.431,5.791-4.431c0.409,0,0.616,0.11,0.616,0.718C237.103,44.826,236.502,46.522,233.636,50.396"/>
</g>
</svg>
